<?xml version="1.0" encoding="UTF-8" standalone="yes"?>
<svg xmlns="http://www.w3.org/2000/svg" height="452" width="452">
<script type="text/ecmascript">
      <![CDATA[
        var shown = 1;
        function click() {
             var seq = document.getElementById("seq");
             if (shown==1) {
               seq.setAttribute("style", "visibility: hidden");
               shown = 0;
             } else {
               seq.setAttribute("style", "visibility: visible");
               shown = 1;
             }
         }
        ]]>
</script>
  <rect style="stroke: white; fill: white" height="452" x="0" y="0" width="452" onclick="click(evt)" />
  <g transform="scale(1.803835,1.803835) translate(-42.618591,-17.859177)">
    <polyline style="stroke: black; fill: none; stroke-width: 1.5" id="outline" points="
      200.227,129.704
      186.712,136.213
      173.198,142.721
      159.683,149.229
      146.169,155.737
      132.654,162.246
      119.140,168.754
      105.625,175.262
      91.662,180.742
      77.329,185.164
      61.470,180.989
      50.119,192.825
      54.952,208.495
      70.998,211.880
      81.750,199.497
      96.083,195.076
      101.852,196.669
      108.002,194.501
      112.134,188.777
      125.648,182.269
      139.163,175.760
      152.677,169.252
      166.192,162.744
      179.706,156.235
      193.221,149.727
      206.735,143.219
      217.569,153.821
      231.377,160.075
      246.492,161.226
      261.088,157.136
      273.403,148.297
      281.949,135.778
      285.696,121.090
      284.190,106.007
      277.613,92.350
      266.759,81.768
      252.940,75.539
      237.823,74.415
      223.235,78.533
      210.936,87.394
      202.412,99.929
    " />
    <g style="stroke: black; stroke-width: 1; fill: none;" id="pairs">
      <line id="1,26" x1="200.22699" y1="129.70445" x2="206.73524" y2="143.21898" />
      <line id="2,25" x1="186.71245" y1="136.21271" x2="193.22070" y2="149.72723" />
      <line id="3,24" x1="173.19792" y1="142.72096" x2="179.70618" y2="156.23549" />
      <line id="4,23" x1="159.68338" y1="149.22922" x2="166.19164" y2="162.74374" />
      <line id="5,22" x1="146.16885" y1="155.73747" x2="152.67711" y2="169.25201" />
      <line id="6,21" x1="132.65431" y1="162.24573" x2="139.16257" y2="175.76025" />
      <line id="7,20" x1="119.13979" y1="168.75400" x2="125.64804" y2="182.26852" />
      <line id="8,19" x1="105.62525" y1="175.26224" x2="112.13351" y2="188.77678" />
      <line id="9,16" x1="91.66215" y1="180.74236" x2="96.08347" y2="195.07596" />
      <line id="10,15" x1="77.32855" y1="185.16370" x2="81.74988" y2="199.49728" />
    </g>
    <g style="font-family: SansSerif" transform="translate(-4.6, 4)" id="seq">
      <text x="200.227" y="129.704">U</text>
      <text x="186.712" y="136.213">U</text>
      <text x="173.198" y="142.721">G</text>
      <text x="159.683" y="149.229">G</text>
      <text x="146.169" y="155.737">A</text>
      <text x="132.654" y="162.246">A</text>
      <text x="119.140" y="168.754">C</text>
      <text x="105.625" y="175.262">C</text>
      <text x="91.662" y="180.742">G</text>
      <text x="77.329" y="185.164">G</text>
      <text x="61.470" y="180.989">U</text>
      <text x="50.119" y="192.825">U</text>
      <text x="54.952" y="208.495">G</text>
      <text x="70.998" y="211.880">G</text>
      <text x="81.750" y="199.497">C</text>
      <text x="96.083" y="195.076">C</text>
      <text x="101.852" y="196.669">A</text>
      <text x="108.002" y="194.501">A</text>
      <text x="112.134" y="188.777">G</text>
      <text x="125.648" y="182.269">G</text>
      <text x="139.163" y="175.760">U</text>
      <text x="152.677" y="169.252">U</text>
      <text x="166.192" y="162.744">U</text>
      <text x="179.706" y="156.235">C</text>
      <text x="193.221" y="149.727">G</text>
      <text x="206.735" y="143.219">A</text>
      <text x="217.569" y="153.821">C</text>
      <text x="231.377" y="160.075">G</text>
      <text x="246.492" y="161.226">A</text>
      <text x="261.088" y="157.136">U</text>
      <text x="273.403" y="148.297">G</text>
      <text x="281.949" y="135.778">A</text>
      <text x="285.696" y="121.090">U</text>
      <text x="284.190" y="106.007">C</text>
      <text x="277.613" y="92.350">C</text>
      <text x="266.759" y="81.768">U</text>
      <text x="252.940" y="75.539">A</text>
      <text x="237.823" y="74.415">G</text>
      <text x="223.235" y="78.533">G</text>
      <text x="210.936" y="87.394">A</text>
      <text x="202.412" y="99.929">C</text>
    </g>
  </g>
</svg>
